<mxfile host="app.diagrams.net" modified="2021-03-15T09:46:33.440Z" agent="5.0 (Macintosh; Intel Mac OS X 11_2_3) AppleWebKit/537.36 (KHTML, like Gecko) Chrome/89.0.4389.82 Safari/537.36" etag="0vR4KlpWEkI3MNaGYMPW" version="14.4.8" type="github">
  <diagram name="Page-1" id="e7e014a7-5840-1c2e-5031-d8a46d1fe8dd">
    <mxGraphModel dx="1426" dy="769" grid="1" gridSize="10" guides="1" tooltips="1" connect="1" arrows="1" fold="1" page="1" pageScale="1" pageWidth="1169" pageHeight="826" background="#ffffff" math="0" shadow="0">
      <root>
        <mxCell id="0" />
        <mxCell id="1" parent="0" />
        <mxCell id="5cSEVSFc7n2i5WwTf0dl-41" value="home" style="rounded=0;whiteSpace=wrap;html=1;" vertex="1" parent="1">
          <mxGeometry x="420" y="220" width="120" height="60" as="geometry" />
        </mxCell>
        <mxCell id="5cSEVSFc7n2i5WwTf0dl-42" value="place app" style="rounded=0;whiteSpace=wrap;html=1;" vertex="1" parent="1">
          <mxGeometry x="530" y="350" width="120" height="60" as="geometry" />
        </mxCell>
        <mxCell id="5cSEVSFc7n2i5WwTf0dl-43" value="map app" style="rounded=0;whiteSpace=wrap;html=1;" vertex="1" parent="1">
          <mxGeometry x="320" y="350" width="120" height="60" as="geometry" />
        </mxCell>
        <mxCell id="5cSEVSFc7n2i5WwTf0dl-44" value="" style="endArrow=classic;html=1;exitX=0.5;exitY=1;exitDx=0;exitDy=0;entryX=0.45;entryY=-0.017;entryDx=0;entryDy=0;entryPerimeter=0;" edge="1" parent="1" source="5cSEVSFc7n2i5WwTf0dl-41" target="5cSEVSFc7n2i5WwTf0dl-42">
          <mxGeometry width="50" height="50" relative="1" as="geometry">
            <mxPoint x="560" y="420" as="sourcePoint" />
            <mxPoint x="610" y="370" as="targetPoint" />
          </mxGeometry>
        </mxCell>
        <mxCell id="5cSEVSFc7n2i5WwTf0dl-46" value="" style="endArrow=classic;html=1;exitX=0.442;exitY=1;exitDx=0;exitDy=0;exitPerimeter=0;" edge="1" parent="1" source="5cSEVSFc7n2i5WwTf0dl-41">
          <mxGeometry width="50" height="50" relative="1" as="geometry">
            <mxPoint x="560" y="420" as="sourcePoint" />
            <mxPoint x="380" y="350" as="targetPoint" />
          </mxGeometry>
        </mxCell>
        <mxCell id="5cSEVSFc7n2i5WwTf0dl-47" value="localhost:9002/remoteEntry.js" style="text;html=1;align=center;verticalAlign=middle;resizable=0;points=[];autosize=1;" vertex="1" parent="1">
          <mxGeometry x="580" y="320" width="170" height="20" as="geometry" />
        </mxCell>
        <mxCell id="5cSEVSFc7n2i5WwTf0dl-48" value="&lt;span style=&quot;color: rgb(0 , 0 , 0) ; font-family: &amp;#34;helvetica&amp;#34; ; font-size: 12px ; font-style: normal ; font-weight: 400 ; letter-spacing: normal ; text-align: center ; text-indent: 0px ; text-transform: none ; word-spacing: 0px ; background-color: rgb(248 , 249 , 250) ; display: inline ; float: none&quot;&gt;localhost:9001/remoteEntry.js&lt;/span&gt;" style="text;whiteSpace=wrap;html=1;" vertex="1" parent="1">
          <mxGeometry x="210" y="320" width="180" height="30" as="geometry" />
        </mxCell>
        <mxCell id="5cSEVSFc7n2i5WwTf0dl-49" value="localhost:9000" style="text;html=1;align=center;verticalAlign=middle;resizable=0;points=[];autosize=1;" vertex="1" parent="1">
          <mxGeometry x="470" y="190" width="90" height="20" as="geometry" />
        </mxCell>
        <mxCell id="5cSEVSFc7n2i5WwTf0dl-52" style="edgeStyle=orthogonalEdgeStyle;rounded=0;orthogonalLoop=1;jettySize=auto;html=1;exitX=1;exitY=0.5;exitDx=0;exitDy=0;entryX=0.45;entryY=0.017;entryDx=0;entryDy=0;entryPerimeter=0;" edge="1" parent="1" source="5cSEVSFc7n2i5WwTf0dl-50" target="5cSEVSFc7n2i5WwTf0dl-41">
          <mxGeometry relative="1" as="geometry" />
        </mxCell>
        <mxCell id="5cSEVSFc7n2i5WwTf0dl-54" style="edgeStyle=orthogonalEdgeStyle;rounded=0;orthogonalLoop=1;jettySize=auto;html=1;exitX=0.5;exitY=1;exitDx=0;exitDy=0;entryX=0;entryY=0.75;entryDx=0;entryDy=0;" edge="1" parent="1" source="5cSEVSFc7n2i5WwTf0dl-50" target="5cSEVSFc7n2i5WwTf0dl-43">
          <mxGeometry relative="1" as="geometry" />
        </mxCell>
        <mxCell id="5cSEVSFc7n2i5WwTf0dl-56" style="edgeStyle=orthogonalEdgeStyle;rounded=0;orthogonalLoop=1;jettySize=auto;html=1;exitX=0.5;exitY=0;exitDx=0;exitDy=0;entryX=1;entryY=0.5;entryDx=0;entryDy=0;" edge="1" parent="1" source="5cSEVSFc7n2i5WwTf0dl-50" target="5cSEVSFc7n2i5WwTf0dl-42">
          <mxGeometry relative="1" as="geometry" />
        </mxCell>
        <mxCell id="5cSEVSFc7n2i5WwTf0dl-50" value="Dashboard" style="rounded=0;whiteSpace=wrap;html=1;" vertex="1" parent="1">
          <mxGeometry x="80" y="150" width="120" height="60" as="geometry" />
        </mxCell>
      </root>
    </mxGraphModel>
  </diagram>
</mxfile>
